<svg xmlns="http://www.w3.org/2000/svg" id="svg3930" viewBox="0 0 339.68 313.88" version="1.1"><g id="layer1" transform="translate(-617.43 137.78)"><g id="g3887" transform="translate(441.65 -156.28) scale(8.6405)"><path id="path3889" d="m21.846 3.253 1.799 9.538c-1.393 2.346-2.184 5.025-2.184 7.87 0 9.221 8.299 16.702 18.532 16.702s18.55-7.48 18.546-16.703c0-2.755-.756-5.352-2.068-7.644l1.795-9.522-7.578 3.517c-3.021-1.926-6.715-3.068-10.695-3.068-3.864 0-7.451 1.066-10.422 2.891l-7.725-3.581z" style="stroke-linejoin:round;stroke:#000;stroke-width:2.2118px;stroke-linecap:round;fill:none"/><path id="path3891" d="m21.846 3.253 1.799 9.538c-1.393 2.346-2.184 5.025-2.184 7.87 0 9.221 8.299 16.702 18.532 16.702s18.55-7.48 18.546-16.703c0-2.755-.756-5.352-2.068-7.644l1.795-9.522-7.578 3.517c-3.021-1.926-6.715-3.068-10.695-3.068-3.864 0-7.451 1.066-10.422 2.891l-7.725-3.581z" style="stroke-linejoin:round;stroke:#000;stroke-linecap:round;stroke-width:1.4665px;fill:#bd9e91"/><path id="path3893" d="M38.206 23.437c-3.48.244-.647 4.09.726 5.432 2.322 1.327 3.671-2.394 4.186-4.092-.53-2.076-3.373-1.117-4.912-1.34z" style="fill:#f25fff"/><path id="path3895" d="M29.975 26.767c.307 2.328 1.691 4.713 4.763 4.763 4.083.067 7.424-4.381 8.406-7.494-2.246-.325-4.492-.308-6.738-.1.982 2.963 4.449 7.539 7.857 7.594 3.27.053 4.394-2.097 4.763-4.763" style="stroke-linejoin:round;stroke:#000;stroke-width:1.1907px;stroke-linecap:round;fill:none"/></g></g></svg>